<svg width="24" height="24" viewBox="0 0 24 24" fill="none" xmlns="http://www.w3.org/2000/svg">
<path d="M3.47488 21.389L9.3209 15.543C9.9882 15.7212 10.7296 15.5485 11.253 15.0251C12.0341 14.244 12.0341 12.9777 11.253 12.1967C10.472 11.4156 9.2057 11.4156 8.42462 12.1967C7.90116 12.7201 7.72853 13.4615 7.90671 14.1288L2.06066 19.9748L1 18.9142C3.82843 15.6143 4.88909 11.961 6.3033 5.83272L12.6673 5.12561L18.3242 10.7825L17.617 17.1464C11.4888 18.5606 7.83537 19.6213 4.53554 22.4497L3.47488 21.389ZM15.1421 1.94363L21.4887 8.29024C21.684 8.4855 21.684 8.80208 21.4887 8.99734C21.4138 9.07225 21.3171 9.12143 21.2124 9.13779L19.7383 9.36825L14.0815 3.7114L14.2936 2.22647C14.3327 1.95311 14.5859 1.76316 14.8593 1.80221C14.9664 1.81751 15.0656 1.86713 15.1421 1.94363Z" fill="#CCBDD2"/>
</svg>
