<svg width="14" height="14" viewBox="0 0 14 14" fill="none" xmlns="http://www.w3.org/2000/svg">
<path d="M5.44994 10.956L4.32303 10.654L4.78238 8.93974C4.08874 8.68424 3.4514 8.3123 2.89405 7.84774L1.63794 9.10383L0.812986 8.27888L2.0691 7.02279C1.37426 6.18926 0.88679 5.1768 0.685913 4.06469L1.83396 3.85596C2.27673 6.30727 4.42131 8.16665 7.00016 8.16665C9.57902 8.16665 11.7236 6.30727 12.1664 3.85596L13.3144 4.06469C13.1135 5.1768 12.6261 6.18926 11.9313 7.02279L13.1873 8.27888L12.3624 9.10383L11.1063 7.84774C10.5489 8.3123 9.91157 8.68424 9.21793 8.93974L9.67731 10.654L8.55042 10.956L8.09087 9.24097C7.73638 9.30169 7.37197 9.33331 7.00016 9.33331C6.6284 9.33331 6.26393 9.30169 5.9095 9.24097L5.44994 10.956Z" fill="#F5F5F5"/>
</svg>
