<svg width="14" height="14" viewBox="0 0 14 14" fill="none" xmlns="http://www.w3.org/2000/svg">
<path d="M7.00022 1.75C10.1456 1.75 12.7624 4.01319 13.3111 7C12.7624 9.98678 10.1456 12.25 7.00022 12.25C3.85478 12.25 1.23796 9.98678 0.689331 7C1.23796 4.01319 3.85478 1.75 7.00022 1.75ZM7.00022 11.0833C9.47098 11.0833 11.5852 9.36367 12.1204 7C11.5852 4.63635 9.47098 2.91667 7.00022 2.91667C4.52939 2.91667 2.41517 4.63635 1.88 7C2.41517 9.36367 4.52939 11.0833 7.00022 11.0833ZM7.00022 9.625C5.55045 9.625 4.37519 8.44976 4.37519 7C4.37519 5.55025 5.55045 4.375 7.00022 4.375C8.44992 4.375 9.62522 5.55025 9.62522 7C9.62522 8.44976 8.44992 9.625 7.00022 9.625ZM7.00022 8.45833C7.80563 8.45833 8.45855 7.80541 8.45855 7C8.45855 6.19459 7.80563 5.54167 7.00022 5.54167C6.19481 5.54167 5.54186 6.19459 5.54186 7C5.54186 7.80541 6.19481 8.45833 7.00022 8.45833Z" fill="#F5F5F5"/>
</svg>
